<?xml version="1.0"?>
<svg width="400" height="400" xmlns="http://www.w3.org/2000/svg" xmlns:svg="http://www.w3.org/2000/svg">
 <!-- Created with SVG-edit - https://github.com/SVG-Edit/svgedit-->
 <g class="layer">
  <title>Layer 1</title>
  <g id="svg_1">
   <path clip-rule="evenodd" d="m392.97,7.03l-192.97,192.97l192.97,192.97c4.34,-4.34 7.03,-10.34 7.03,-16.97l0,-352c0,-6.63 -2.69,-12.63 -7.03,-16.97z" fill="#60D5C4" fill-rule="evenodd" id="svg_2" style="--darkreader-inline-fill: #24887d;"/>
   <path clip-rule="evenodd" d="m392.97,7.03l-192.97,192.97l-192.97,-192.97c4.34,-4.34 10.34,-7.03 16.97,-7.03l352,0c6.63,0 12.63,2.69 16.97,7.03z" fill="#71E9D8" fill-rule="evenodd" id="svg_3" style="--darkreader-inline-fill: #148176;"/>
   <path clip-rule="evenodd" d="m7.03,7.03l192.97,192.97l-192.97,192.97c-4.34,-4.34 -7.03,-10.34 -7.03,-16.97l0,-352c0,-6.63 2.69,-12.63 7.03,-16.97z" fill="#60D5C4" fill-rule="evenodd" id="svg_4" style="--darkreader-inline-fill: #24887d;"/>
   <path clip-rule="evenodd" d="m392.97,392.97l-192.97,-192.97l-192.97,192.97c4.34,4.34 10.34,7.03 16.97,7.03l352,0c6.63,0 12.63,-2.69 16.97,-7.03z" fill="#71E9D8" fill-rule="evenodd" id="svg_5" style="--darkreader-inline-fill: #148176;"/>
   <rect fill="#09B6A2" height="300" id="svg_6" rx="2" style="--darkreader-inline-fill: #079282;" width="300" x="50" y="50"/>
   <path d="m120.8,290.12c-19.56,0 -29.34,-9.78 -29.34,-29.34l0,-41.94c0,-7.32 -3.6,-10.98 -10.8,-10.98c-2.64,0 -4.86,-0.84 -6.66,-2.52c-1.68,-1.68 -2.52,-3.84 -2.52,-6.48c0,-2.76 0.84,-4.98 2.52,-6.66c1.8,-1.68 4.02,-2.52 6.66,-2.52c7.2,0 10.8,-3.66 10.8,-10.98l0,-41.94c0,-19.56 9.78,-29.34 29.34,-29.34c2.64,0 4.8,0.9 6.48,2.7c1.68,1.8 2.52,4.02 2.52,6.66c0,2.64 -0.84,4.8 -2.52,6.48c-1.68,1.68 -3.84,2.52 -6.48,2.52c-7.32,0 -10.98,3.66 -10.98,10.98l0,41.94c0,4.2 -0.48,7.98 -1.44,11.34c-0.96,3.36 -2.4,6.3 -4.32,8.82c3.84,4.92 5.76,11.58 5.76,19.98l0,41.94c0,7.32 3.66,10.98 10.98,10.98c2.64,0 4.8,0.84 6.48,2.52c1.68,1.68 2.52,3.9 2.52,6.66c0,2.64 -0.84,4.8 -2.52,6.48c-1.68,1.8 -3.84,2.7 -6.48,2.7zm35.93,-39.24c-3.36,0 -6.3,-1.2 -8.82,-3.6c-2.4,-2.52 -3.6,-5.46 -3.6,-8.82c0,-3.48 1.2,-6.42 3.6,-8.82c2.52,-2.52 5.46,-3.78 8.82,-3.78c3.48,0 6.42,1.26 8.82,3.78c2.4,2.4 3.6,5.34 3.6,8.82c0,3.36 -1.2,6.3 -3.6,8.82c-2.4,2.4 -5.34,3.6 -8.82,3.6zm42.89,0c-3.36,0 -6.3,-1.2 -8.82,-3.6c-2.4,-2.52 -3.6,-5.46 -3.6,-8.82c0,-3.48 1.2,-6.42 3.6,-8.82c2.52,-2.52 5.46,-3.78 8.82,-3.78c3.48,0 6.42,1.26 8.82,3.78c2.4,2.4 3.6,5.34 3.6,8.82c0,3.36 -1.2,6.3 -3.6,8.82c-2.4,2.4 -5.34,3.6 -8.82,3.6zm42.89,0c-3.36,0 -6.3,-1.2 -8.82,-3.6c-2.4,-2.52 -3.6,-5.46 -3.6,-8.82c0,-3.48 1.2,-6.42 3.6,-8.82c2.52,-2.52 5.46,-3.78 8.82,-3.78c3.48,0 6.42,1.26 8.82,3.78c2.4,2.4 3.6,5.34 3.6,8.82c0,3.36 -1.2,6.3 -3.6,8.82c-2.4,2.4 -5.34,3.6 -8.82,3.6zm36.05,39.24c-2.64,0 -4.8,-0.9 -6.48,-2.7c-1.68,-1.68 -2.52,-3.84 -2.52,-6.48c0,-2.76 0.84,-4.98 2.52,-6.66c1.68,-1.68 3.84,-2.52 6.48,-2.52c7.32,0 10.98,-3.66 10.98,-10.98l0,-41.94c0,-8.4 1.92,-15.06 5.76,-19.98c-1.92,-2.52 -3.36,-5.46 -4.32,-8.82c-0.96,-3.36 -1.44,-7.14 -1.44,-11.34l0,-41.94c0,-7.32 -3.66,-10.98 -10.98,-10.98c-2.64,0 -4.8,-0.84 -6.48,-2.52c-1.68,-1.68 -2.52,-3.84 -2.52,-6.48c0,-2.64 0.84,-4.86 2.52,-6.66c1.68,-1.8 3.84,-2.7 6.48,-2.7c19.56,0 29.34,9.78 29.34,29.34l0,41.94c0,7.32 3.6,10.98 10.8,10.98c2.64,0 4.8,0.84 6.48,2.52c1.8,1.68 2.7,3.9 2.7,6.66c0,2.64 -0.9,4.8 -2.7,6.48c-1.68,1.68 -3.84,2.52 -6.48,2.52c-7.2,0 -10.8,3.66 -10.8,10.98l0,41.94c0,19.56 -9.78,29.34 -29.34,29.34z" fill="white" id="svg_7"/>
  </g>
 </g>
</svg>